<svg preserveAspectRatio="none" width="100%" height="100%" overflow="visible" style="display: block;" viewBox="0 0 18 21.603" fill="none" xmlns="http://www.w3.org/2000/svg">
<path id="Color" d="M7.94043 0.282723C8.60254 -0.0942411 9.39746 -0.0942412 10.0596 0.282723L17.1074 4.29542C17.6568 4.6084 18 5.21891 18 5.88331V8.40382C17.9998 9.06639 17.4962 9.60304 16.875 9.60304H15.75V18.0034H16.875C17.4963 18.0034 18 18.5409 18 19.2036V20.4038C17.9998 21.0664 17.4962 21.603 16.875 21.603H1.125C0.50379 21.603 0.000178135 21.0664 0 20.4038V19.2036C0 18.5409 0.50368 18.0034 1.125 18.0034H2.25V9.60304H1.125C0.503794 9.60304 0.000185042 9.06639 0 8.40382V5.88331C0 5.21891 0.343176 4.60841 0.892578 4.29542L7.94043 0.282723ZM3.9375 18.0034H6.1875V9.60304H3.9375V18.0034ZM7.875 18.0034H10.125V9.60304H7.875V18.0034ZM11.8125 18.0034H14.0625V9.60304H11.8125V18.0034ZM9 3.30323C7.91269 3.30323 7.03125 4.24402 7.03125 5.40382C7.03142 6.56346 7.9128 7.50343 9 7.50343C10.0872 7.50343 10.9686 6.56346 10.9688 5.40382C10.9688 4.24402 10.0873 3.30323 9 3.30323Z" fill="var(--fill-0, #003087)"/>
</svg>
