<svg preserveAspectRatio="none" width="100%" height="100%" overflow="visible" style="display: block;" viewBox="0 0 16 20" fill="none" xmlns="http://www.w3.org/2000/svg">
<path id="Color" fill-rule="evenodd" clip-rule="evenodd" d="M1 7H2V6C2 2.68629 4.68629 0 8 0C11.3137 0 14 2.68629 14 6V7H15C15.5523 7 16 7.44772 16 8V19C16 19.5523 15.5523 20 15 20H1C0.447715 20 0 19.5523 0 19V8C0 7.44772 0.447715 7 1 7ZM12.5 6V7H3.5V6C3.5 3.51472 5.51472 1.5 8 1.5C10.4853 1.5 12.5 3.51472 12.5 6ZM10 12C10 12.7403 9.5978 13.3866 9 13.7324V16C9 16.5523 8.55228 17 8 17C7.44772 17 7 16.5523 7 16V13.7324C6.4022 13.3866 6 12.7403 6 12C6 10.8954 6.89543 10 8 10C9.10457 10 10 10.8954 10 12Z" fill="var(--fill-0, #545D68)"/>
</svg>
