<svg preserveAspectRatio="none" width="100%" height="100%" overflow="visible" style="display: block;" viewBox="0 0 18 18" fill="none" xmlns="http://www.w3.org/2000/svg">
<path id="Color" fill-rule="evenodd" clip-rule="evenodd" d="M9 18C13.9706 18 18 13.9706 18 9C18 4.02944 13.9706 0 9 0C4.02944 0 0 4.02944 0 9C0 13.9706 4.02944 18 9 18ZM14.1353 6.04624C14.3872 5.71746 14.325 5.24669 13.9962 4.99473C13.6674 4.74278 13.1967 4.80505 12.9447 5.13382L7.65344 12.0382L5.06228 9.37681C4.77333 9.08003 4.2985 9.07368 4.00171 9.36263C3.70493 9.65158 3.69858 10.1264 3.98753 10.4232L7.17568 13.6978C7.49896 14.0298 8.04158 13.9977 8.32345 13.6299L14.1353 6.04624Z" fill="var(--fill-0, #0070E0)"/>
</svg>
