<svg preserveAspectRatio="none" width="100%" height="100%" overflow="visible" style="display: block;" viewBox="0 0 20.252 24.9319" fill="none" xmlns="http://www.w3.org/2000/svg">
<g id="monogram">
<path id="Union-base" d="M17.236 5.71487C17.2963 2.58446 14.7135 0.181966 11.162 0.181966H3.81609C3.64496 0.181993 3.47946 0.243091 3.34936 0.354271C3.21927 0.46545 3.13312 0.619414 3.10643 0.78845L0.163127 19.18C0.149959 19.2633 0.155009 19.3485 0.17793 19.4297C0.200851 19.5109 0.241098 19.5861 0.295899 19.6503C0.3507 19.7144 0.418754 19.7659 0.495371 19.8012C0.571989 19.8366 0.655351 19.8548 0.739716 19.8548H5.09164L4.41158 24.1143C4.39846 24.1976 4.40354 24.2828 4.42649 24.3639C4.44943 24.4451 4.48968 24.5203 4.54448 24.5844C4.59927 24.6485 4.66731 24.7 4.74391 24.7353C4.8205 24.7706 4.90383 24.7889 4.98817 24.7889H8.53334C8.70447 24.7889 8.85696 24.7278 8.98706 24.6166C9.11716 24.5054 9.13827 24.3515 9.16496 24.1824L10.2055 18.0595C10.2321 17.8904 10.3182 17.6713 10.4483 17.5601C10.5784 17.4489 10.6919 17.3877 10.8631 17.3877H13.0327C16.5106 17.3877 19.4617 14.9156 20.0012 11.4773C20.3829 9.03643 19.3365 6.81602 17.236 5.71487Z" fill="var(--fill-0, #001C64)"/>
<path id="Vector" d="M6.03315 13.0727L4.94924 19.9458L4.26918 24.2572C4.25606 24.3406 4.26114 24.4257 4.28408 24.5069C4.30702 24.588 4.34728 24.6633 4.40207 24.7274C4.45687 24.7915 4.52491 24.843 4.6015 24.8783C4.67809 24.9136 4.76143 24.9318 4.84576 24.9319H8.59761C8.76874 24.9318 8.93424 24.8707 9.06434 24.7595C9.19443 24.6484 9.28058 24.4944 9.30728 24.3254L10.2958 18.0594C10.3224 17.8903 10.4085 17.7362 10.5386 17.625C10.6687 17.5138 10.8343 17.4526 11.0054 17.4526H13.214C16.692 17.4526 19.643 14.9154 20.1825 11.4772C20.5651 9.0366 19.3366 6.81619 17.2361 5.71504C17.231 5.97497 17.2082 6.23426 17.168 6.49111C16.6287 9.92907 13.6771 12.4665 10.1995 12.4665H6.74281C6.57168 12.4665 6.40618 12.5276 6.27608 12.6388C6.14599 12.75 6.05984 12.9037 6.03315 13.0727Z" fill="var(--fill-0, #0070E0)"/>
<path id="Vector_2" d="M4.94868 19.9457H0.583748C0.499395 19.9458 0.416038 19.9275 0.33942 19.8922C0.262802 19.857 0.194743 19.8055 0.139937 19.7414C0.0851317 19.6772 0.0448805 19.602 0.0219578 19.5208C-0.000964896 19.4396 -0.00601409 19.3545 0.00715817 19.2711L2.95046 0.606483C2.97715 0.437448 3.0633 0.283484 3.1934 0.172305C3.32349 0.0611251 3.489 2.68773e-05 3.66013 0H11.1621C14.7136 0 17.2965 2.58459 17.2361 5.715C16.3522 5.25166 15.314 4.98636 14.1764 4.98636H7.92187C7.7507 4.9864 7.58517 5.04754 7.45506 5.15878C7.32496 5.27002 7.23884 5.42404 7.21221 5.59313L6.03374 13.0727L4.94868 19.9457Z" fill="var(--fill-0, #003087)"/>
</g>
</svg>
