<svg preserveAspectRatio="none" width="100%" height="100%" overflow="visible" style="display: block;" viewBox="0 0 40.4994 18.3497" fill="none" xmlns="http://www.w3.org/2000/svg">
<g id="logo">
<path id="Shape" d="M25.9091 9.10693H22.8426C22.7032 9.10693 22.5638 9.24632 22.5173 9.38571L21.1699 17.9814C21.1699 17.9814 21.1699 17.9814 21.1699 18.0278C21.1699 18.1207 21.2628 18.2137 21.3558 18.2137H24.4688C26.9778 18.2137 29.3939 16.2158 29.812 13.6603C30.1837 11.1048 28.4181 9.10693 25.9091 9.10693ZM27.3495 13.6138C27.0707 15.3794 25.7233 16.1693 24.3294 16.1693H23.7718L24.5617 11.2442C24.5617 11.1513 24.6546 11.1048 24.7476 11.1048H25.1193C26.6526 11.1048 27.5818 11.9876 27.3495 13.6138Z" fill="var(--fill-0, #003087)"/>
<path id="Path" d="M18.8459 11.1048H21.0762C21.2156 11.1048 21.3549 10.9655 21.4014 10.8261L21.6337 9.33925V9.29279C21.6337 9.19986 21.5408 9.10693 21.4479 9.10693H16.8016C16.6622 9.10693 16.5228 9.24632 16.4763 9.38571L15.1289 17.9349C15.1289 17.9349 15.1289 17.9349 15.1289 17.9814C15.1289 18.0743 15.2218 18.1672 15.3148 18.1672H19.9611C20.1004 18.1672 20.2398 18.0278 20.2863 17.8884L20.5186 16.4016C20.5186 16.4016 20.5186 16.4016 20.5186 16.3552C20.5186 16.2622 20.4257 16.1693 20.3328 16.1693H17.7308L17.9167 14.8683C17.9631 14.729 18.0561 14.5896 18.2419 14.5896H20.3328C20.4721 14.5896 20.6115 14.4502 20.658 14.3108L20.8903 12.824V12.7775C20.8903 12.6846 20.7974 12.5917 20.7045 12.5917H18.2884L18.4742 11.3372C18.5672 11.1978 18.7066 11.1048 18.8459 11.1048Z" fill="var(--fill-0, #003087)"/>
<path id="Path_2" d="M33.3451 9.10693H31.4866C31.3472 9.10693 31.2079 9.24632 31.1614 9.38571L29.814 17.9349V17.9814C29.814 18.0743 29.9069 18.1672 29.9998 18.1672H31.8583C31.9977 18.1672 32.1836 18.0278 32.1836 17.8884L33.531 9.29279C33.531 9.29279 33.531 9.29279 33.531 9.24632C33.531 9.1534 33.4845 9.10693 33.3451 9.10693Z" fill="var(--fill-0, #003087)"/>
<path id="Shape_2" d="M12.2493 9.10693H8.95042C8.81103 9.10693 8.71811 9.19986 8.67164 9.33925L7.32422 17.9814V18.0278C7.32422 18.1207 7.41715 18.2137 7.51007 18.2137H9.41505C9.55444 18.2137 9.64737 18.1207 9.69383 17.9814L10.2049 14.729H10.2514L11.8311 18.0743C11.8776 18.1672 11.9705 18.2137 12.0634 18.2137H14.4795C14.526 18.2137 14.526 18.2137 14.5724 18.1672C14.6654 18.1207 14.7118 17.9814 14.6189 17.8884L12.5281 14.4502C13.829 14.2179 14.7118 13.1492 14.9441 11.8947C15.2694 9.94327 14.0613 9.10693 12.2493 9.10693ZM12.4816 12.0341C12.3422 13.0098 11.413 13.1492 10.6696 13.1492H10.4372L10.7625 11.0584C10.7625 10.9655 10.8554 10.8725 10.9483 10.8725H11.2736C12.1564 10.919 12.6675 11.0119 12.4816 12.0341Z" fill="var(--fill-0, #003087)"/>
<path id="Path_3" d="M40.3136 9.10693H34.5522C34.4128 9.10693 34.2734 9.24632 34.2269 9.38571L33.9946 10.8725C33.9946 10.8725 33.9946 10.8725 33.9946 10.919C33.9946 11.0119 34.0876 11.1048 34.1805 11.1048H35.8996L34.831 17.9814V18.0278C34.831 18.1207 34.9239 18.2137 35.0168 18.2137H36.8753C37.0147 18.2137 37.1541 18.0743 37.2006 17.9349L38.2692 11.1513H39.9419C40.0813 11.1513 40.2207 11.0119 40.2671 10.8725L40.4994 9.38571C40.4994 9.38571 40.4994 9.38571 40.4994 9.33925C40.4994 9.1534 40.4065 9.10693 40.3136 9.10693Z" fill="var(--fill-0, #003087)"/>
<path id="Path_4" d="M7.46363 11.659L7.78887 9.61465C7.83533 9.4288 7.69594 9.24295 7.55655 9.15002C6.999 8.96417 6.39498 8.82478 5.79096 8.82478C3.79306 8.73186 0.587111 9.61465 0.029556 13.6105C-0.156296 15.0508 0.447723 18.3497 4.35061 18.3497C5.00109 18.3497 5.55865 18.2103 6.30205 17.978C6.44144 17.9315 6.53437 17.8386 6.53437 17.7457L6.85961 15.6548C6.85961 15.6084 6.85961 15.5619 6.81315 15.5154C6.76668 15.4225 6.6273 15.4225 6.53437 15.469C6.02328 15.8407 5.3728 16.073 4.76878 16.073C3.28196 16.073 2.49209 15.0508 2.67794 13.6105C2.91026 12.2166 4.07183 11.1015 5.46572 11.1015C6.06974 11.1015 6.67376 11.3338 7.09193 11.7519C7.13839 11.7984 7.13839 11.7984 7.23131 11.7984C7.32424 11.8449 7.41717 11.7519 7.46363 11.659Z" fill="var(--fill-0, #003087)"/>
<path id="Shape_3" d="M16.2 5.66912H17.2687C17.3616 5.66912 17.4545 5.62266 17.4545 5.52973L17.6868 4.04292C17.7333 3.90353 17.8262 3.8106 17.9656 3.8106H18.6161C19.9635 3.8106 20.7534 3.16012 20.9392 1.85916C21.0322 1.3016 20.9392 0.836975 20.7069 0.558197C20.4281 0.186493 19.917 0.0471046 19.2201 0.0471046H17.1757C17.0363 0.0471046 16.9434 0.140031 16.897 0.279419L16.0606 5.52973C16.0606 5.5762 16.1071 5.66912 16.2 5.66912ZM18.1515 1.25514C18.1515 1.16222 18.2444 1.11575 18.2908 1.11575H18.4302C18.8019 1.11575 19.1272 1.11575 19.313 1.34807C19.406 1.48746 19.4524 1.67331 19.406 1.90562C19.313 2.64903 18.7555 2.64903 18.1979 2.64903H17.8727L18.1515 1.25514Z" fill="var(--fill-0, #003087)"/>
<path id="Shape_4" d="M1.60987 5.66912H2.63206C2.77145 5.66912 2.91083 5.5762 2.91083 5.43681L3.14315 4.04292C3.18961 3.90353 3.28254 3.8106 3.42193 3.8106H4.07241C5.41983 3.8106 6.2097 3.16012 6.39556 1.85916C6.48848 1.3016 6.39556 0.836975 6.16324 0.558197C5.88446 0.232956 5.37337 0.0471046 4.67643 0.0471046H2.63206C2.49267 0.0471046 2.39974 0.140031 2.35328 0.279419L1.47048 5.48327C1.47048 5.5762 1.51695 5.66912 1.60987 5.66912ZM3.56132 1.25514C3.56132 1.16222 3.65424 1.11575 3.7007 1.11575H3.84009C4.2118 1.11575 4.53704 1.11575 4.72289 1.34807C4.81582 1.48746 4.86228 1.67331 4.81582 1.90562C4.72289 2.64903 4.16533 2.64903 3.60778 2.64903H3.329L3.56132 1.25514Z" fill="var(--fill-0, #003087)"/>
<path id="Shape_5" d="M6.4873 5.24871C6.76608 5.62042 7.23071 5.75981 7.7418 5.75981C8.25289 5.75981 8.71752 5.57395 9.08923 5.20225L9.04276 5.48103C9.04276 5.57395 9.08923 5.66688 9.18215 5.66688C9.18215 5.66688 9.18215 5.66688 9.22862 5.66688H10.1114C10.2508 5.66688 10.3437 5.57395 10.3902 5.43457L10.9013 2.08923C10.9013 1.99631 10.8548 1.90338 10.7619 1.90338H10.7154H9.73971C9.64678 1.90338 9.60032 1.94984 9.60032 2.04277L9.55386 2.32155L9.50739 2.22862C9.27508 1.90338 8.81045 1.81046 8.34582 1.81046C7.27717 1.81046 6.34791 2.64679 6.16206 3.7619C6.02267 4.27299 6.16206 4.83055 6.4873 5.24871ZM7.46302 3.7619C7.55595 3.20434 8.02058 2.83264 8.57813 2.83264C8.81045 2.83264 9.04276 2.92557 9.22862 3.11142C9.368 3.29727 9.46093 3.57605 9.368 3.80836C9.27508 4.36592 8.81045 4.78408 8.25289 4.73762C7.83473 4.78408 7.46302 4.45884 7.41656 4.04068C7.41656 3.94775 7.41656 3.85483 7.46302 3.7619Z" fill="var(--fill-0, #003087)"/>
<path id="Shape_6" d="M21.0758 5.24881C21.3546 5.62051 21.8192 5.7599 22.3303 5.7599C22.8414 5.7599 23.3061 5.57405 23.6778 5.20234L23.6313 5.48112C23.6313 5.57405 23.6778 5.66697 23.7707 5.66697C23.7707 5.66697 23.7707 5.66697 23.8172 5.66697H24.6999C24.8393 5.66697 24.9323 5.57405 24.9787 5.43466L25.4898 2.08932C25.4898 1.9964 25.4434 1.90347 25.3504 1.90347H25.304H24.3282C24.2353 1.90347 24.1889 1.94994 24.1889 2.04286L24.1424 2.32164L24.0959 2.22871C23.8636 1.90347 23.399 1.81055 22.9344 1.81055C21.8657 1.81055 20.9365 2.64688 20.7506 3.76199C20.6112 4.27308 20.7506 4.83064 21.0758 5.24881ZM22.0051 3.76199C22.098 3.20444 22.5627 2.83273 23.1202 2.83273C23.3525 2.83273 23.5848 2.92566 23.7707 3.11151C23.9101 3.29736 24.003 3.57614 23.9101 3.80845C23.8172 4.36601 23.3525 4.78418 22.795 4.73771C22.5627 4.73771 22.3303 4.64479 22.1445 4.45894C22.0051 4.27308 21.9586 3.99431 22.0051 3.76199Z" fill="var(--fill-0, #003087)"/>
<path id="Path_5" d="M12.4837 5.29582L11.4615 6.73617C11.4151 6.8291 11.4151 6.92202 11.508 6.96848C11.5544 7.01495 11.5544 7.01495 11.6009 7.01495H12.5766C12.6696 7.01495 12.7625 6.96849 12.8089 6.87556L16.0614 2.13634C16.1078 2.04341 16.1078 1.95049 16.0149 1.90402C15.9684 1.90402 15.9684 1.85756 15.922 1.85756H14.9462C14.8533 1.85756 14.7604 1.90402 14.7139 1.99695L13.3665 3.99486L12.8089 2.08987C12.7625 1.95049 12.6696 1.90402 12.5302 1.90402H11.5544C11.4615 1.90402 11.3686 1.99695 11.3686 2.08987V2.13634L12.4837 5.29582Z" fill="var(--fill-0, #003087)"/>
<path id="Path_6" d="M25.7689 5.66848H26.6517C26.7911 5.66848 26.884 5.57555 26.9305 5.43617L27.7668 0.185852C27.7668 0.0929259 27.7204 0 27.6275 0C27.6275 0 27.6275 0 27.581 0H26.6517C26.5588 0 26.5123 0.0464629 26.4659 0.139389L25.6295 5.48263C25.5831 5.57555 25.676 5.66848 25.7689 5.66848Z" fill="var(--fill-0, #003087)"/>
</g>
</svg>
