<svg preserveAspectRatio="none" width="100%" height="100%" overflow="visible" style="display: block;" viewBox="0 0 81.012 21.9493" fill="none" xmlns="http://www.w3.org/2000/svg">
<g id="Frame" clip-path="url(#clip0_0_782)">
<path id="Vector" d="M8.35726 12.3882C10.0188 12.3866 11.625 11.7877 12.8862 10.6996C14.1474 9.61141 14.9806 8.10565 15.2354 6.45391C15.7731 3.01085 13.0986 0.00488869 9.30932 0.00488869H3.20283C3.08831 0.00358629 2.97719 0.0439647 2.88993 0.118582C2.80267 0.193199 2.74515 0.297027 2.72798 0.410937L0.00594 17.791C-0.00400008 17.8546 -0.000147904 17.9195 0.0172286 17.9814C0.034605 18.0433 0.0650937 18.1006 0.106602 18.1496C0.148111 18.1985 0.199652 18.2377 0.257687 18.2647C0.315721 18.2917 0.378871 18.3057 0.442796 18.3058H3.67411C3.78863 18.3071 3.89975 18.2667 3.98701 18.1921C4.07427 18.1174 4.13179 18.0136 4.14896 17.8997L4.94907 12.7942C4.96624 12.6803 5.02376 12.5765 5.11102 12.5019C5.19827 12.4273 5.3094 12.3869 5.42391 12.3882H8.35726ZM11.0615 6.29746C10.8621 7.57054 9.88389 8.50803 8.01181 8.50803H5.61859L6.34392 3.87788H8.6944C10.6306 3.88146 11.2597 5.03034 11.0615 6.30104V6.29746Z" fill="var(--fill-0, #003087)"/>
<path id="Vector_2" d="M29.2374 5.47928H26.1699C26.0554 5.47798 25.9442 5.51836 25.857 5.59298C25.7697 5.66759 25.7122 5.77143 25.695 5.88534L25.5953 6.52546C25.5953 6.52546 23.2128 3.90883 18.9974 5.67634C16.5792 6.68907 15.4182 8.78142 14.9256 10.3137C14.9256 10.3137 13.3562 14.9713 16.9021 17.5354C16.9021 17.5354 20.1904 20.0003 23.893 17.3825L23.8289 17.7909C23.819 17.8545 23.8228 17.9194 23.8402 17.9813C23.8576 18.0432 23.8881 18.1005 23.9296 18.1494C23.9711 18.1984 24.0226 18.2376 24.0806 18.2646C24.1387 18.2916 24.2018 18.3056 24.2658 18.3057H27.3333C27.4478 18.307 27.5589 18.2666 27.6462 18.192C27.7334 18.1173 27.7909 18.0135 27.8081 17.8996L29.6742 5.99401C29.6842 5.93048 29.6803 5.86555 29.6629 5.80366C29.6456 5.74177 29.6151 5.6844 29.5736 5.63549C29.5321 5.58658 29.4805 5.5473 29.4225 5.52033C29.3645 5.49337 29.3013 5.47936 29.2374 5.47928ZM24.7264 12.0597C24.6063 12.8892 24.1912 13.6468 23.5582 14.1919C22.9251 14.737 22.117 15.0326 21.2837 15.0238C20.9574 15.0275 20.6325 14.9796 20.321 14.8817C18.9986 14.4542 18.2436 13.1751 18.4608 11.7886C18.5809 10.9567 18.9975 10.1972 19.6331 9.65163C20.2687 9.10603 21.0798 8.81159 21.9153 8.82322C22.2421 8.81998 22.5673 8.86834 22.8792 8.96653C24.1969 9.39169 24.9472 10.6719 24.7299 12.0597H24.7264Z" fill="var(--fill-0, #003087)"/>
<path id="Vector_3" d="M52.5343 12.3881C54.197 12.388 55.8048 11.7897 57.0675 10.7015C58.3301 9.61323 59.1644 8.10665 59.4196 6.45379C59.9562 3.01073 57.2828 0.00477247 53.4923 0.00477247H47.387C47.2725 0.00347007 47.1614 0.0438484 47.0741 0.118466C46.9869 0.193083 46.9293 0.296911 46.9122 0.410821L44.1818 17.7957C44.1719 17.8592 44.1757 17.9242 44.1931 17.986C44.2105 18.0479 44.241 18.1053 44.2825 18.1542C44.324 18.2031 44.3755 18.2424 44.4336 18.2694C44.4916 18.2963 44.5548 18.3103 44.6187 18.3104H47.8512C47.9657 18.3117 48.0768 18.2713 48.1641 18.1967C48.2514 18.1221 48.3089 18.0183 48.326 17.9044L49.1273 12.7989C49.1445 12.685 49.202 12.5812 49.2893 12.5065C49.3765 12.4319 49.4877 12.3915 49.6022 12.3928L52.5343 12.3881ZM55.2386 6.29734C55.0391 7.57042 54.061 8.50791 52.1889 8.50791H49.7957L50.5222 3.87776H52.8727C54.8077 3.88134 55.438 5.03023 55.2386 6.30092V6.29734Z" fill="var(--fill-0, #0070E0)"/>
<path id="Vector_4" d="M73.4145 5.47928H70.3494C70.2349 5.47798 70.1237 5.51836 70.0365 5.59298C69.9492 5.66759 69.8917 5.77143 69.8745 5.88534L69.7736 6.52546C69.7736 6.52546 67.3923 3.90883 63.1768 5.67634C60.7587 6.68907 59.5977 8.78142 59.1039 10.3137C59.1039 10.3137 57.5357 14.9713 61.0816 17.5354C61.0816 17.5354 64.3699 20.0003 68.0725 17.3825L68.0084 17.7909C67.9984 17.8545 68.0023 17.9194 68.0197 17.9813C68.0371 18.0432 68.0675 18.1005 68.109 18.1494C68.1506 18.1984 68.2021 18.2376 68.2601 18.2646C68.3182 18.2916 68.3813 18.3056 68.4452 18.3057H71.5127C71.6273 18.307 71.7384 18.2666 71.8256 18.192C71.9129 18.1173 71.9704 18.0135 71.9876 17.8996L73.8537 5.99401C73.8637 5.93028 73.8598 5.86514 73.8423 5.80308C73.8248 5.74102 73.7941 5.68353 73.7523 5.63458C73.7105 5.58563 73.6587 5.5464 73.6004 5.51958C73.542 5.49277 73.4786 5.47902 73.4145 5.47928ZM68.9035 12.0597C68.7848 12.8899 68.3702 13.6483 67.7368 14.1937C67.1034 14.7391 66.2945 15.0341 65.4608 15.0238C65.1341 15.0276 64.8088 14.9797 64.4969 14.8817C63.1733 14.4542 62.4183 13.1751 62.6355 11.7886C62.7553 10.9588 63.1703 10.2009 63.8034 9.6556C64.4365 9.11027 65.2447 8.81451 66.0781 8.82322C66.4049 8.81978 66.7302 8.86815 67.0421 8.96653C68.374 9.39169 69.1255 10.6719 68.907 12.0597H68.9035Z" fill="var(--fill-0, #0070E0)"/>
<path id="Vector_5" d="M40.4983 5.77425L36.8004 12.0537L34.9236 5.82083C34.8943 5.72185 34.834 5.63507 34.7516 5.5735C34.6692 5.51192 34.5692 5.47886 34.4665 5.47927H31.1296C31.0721 5.47827 31.0152 5.49129 30.9638 5.51722C30.9124 5.54315 30.868 5.58121 30.8344 5.62815C30.8008 5.6751 30.779 5.72952 30.7709 5.78679C30.7627 5.84405 30.7685 5.90244 30.7877 5.95697L34.1508 16.4569L31.1094 21.4048C31.0749 21.4593 31.0558 21.5221 31.0539 21.5867C31.052 21.6512 31.0676 21.7151 31.0988 21.7715C31.1301 21.8279 31.1759 21.8748 31.2315 21.9071C31.2871 21.9395 31.3503 21.9561 31.4145 21.9553H35.0091C35.1118 21.9555 35.2129 21.9289 35.3024 21.878C35.3919 21.8272 35.4667 21.7538 35.5195 21.6651L44.9131 6.03221C44.9467 5.97761 44.9652 5.91491 44.9665 5.85068C44.9677 5.78645 44.9518 5.72305 44.9204 5.66713C44.8889 5.61121 44.8431 5.56482 44.7878 5.53282C44.7324 5.50082 44.6695 5.48439 44.6057 5.48524H41.0123C40.909 5.48427 40.8073 5.51042 40.7171 5.5611C40.627 5.61179 40.5515 5.68526 40.4983 5.77425Z" fill="var(--fill-0, #003087)"/>
<path id="Vector_6" d="M76.8654 0.406059L74.1351 17.7909C74.1251 17.8545 74.129 17.9194 74.1464 17.9813C74.1637 18.0432 74.1942 18.1005 74.2357 18.1494C74.2772 18.1984 74.3288 18.2376 74.3868 18.2646C74.4448 18.2916 74.508 18.3056 74.5719 18.3057H77.8032C77.9178 18.307 78.0289 18.2666 78.1161 18.192C78.2034 18.1173 78.2609 18.0135 78.2781 17.8996L81.0084 0.514737C81.0184 0.45121 81.0145 0.386268 80.9971 0.32438C80.9798 0.262492 80.9493 0.205122 80.9078 0.156215C80.8663 0.107307 80.8147 0.0680208 80.7567 0.0410564C80.6986 0.014092 80.6355 8.7129e-05 80.5716 7.30577e-06H77.3403C77.2257 -0.00129509 77.1146 0.0390833 77.0274 0.113701C76.9401 0.188318 76.8826 0.292149 76.8654 0.406059Z" fill="var(--fill-0, #0070E0)"/>
</g>
<defs>
<clipPath id="clip0_0_782">
<rect width="81.012" height="21.9493" fill="white"/>
</clipPath>
</defs>
</svg>
