<svg preserveAspectRatio="none" width="100%" height="100%" overflow="visible" style="display: block;" viewBox="0 0 163 43.8987" fill="none" xmlns="http://www.w3.org/2000/svg">
<g id="Frame" clip-path="url(#clip0_0_61)">
<path id="Vector" d="M16.8152 24.7764C20.1582 24.7732 23.3901 23.5754 25.9277 21.3991C28.4653 19.2228 30.1417 16.2113 30.6543 12.9078C31.7363 6.0217 26.355 0.00977738 18.7308 0.00977738H6.44424C6.21383 0.00717259 5.99025 0.0879293 5.81468 0.237164C5.63911 0.386398 5.52338 0.594054 5.48883 0.821874L0.0119516 35.5821C-0.00804836 35.7091 -0.00029759 35.839 0.0346647 35.9628C0.069627 36.0865 0.130972 36.2013 0.214489 36.2991C0.298007 36.3969 0.40171 36.4755 0.518478 36.5294C0.635245 36.5833 0.762307 36.6114 0.890926 36.6115H7.3925C7.62291 36.6141 7.84649 36.5334 8.02206 36.3841C8.19763 36.2349 8.31335 36.0272 8.3479 35.7994L9.95777 25.5885C9.99232 25.3607 10.108 25.153 10.2836 25.0038C10.4592 24.8545 10.6828 24.7738 10.9132 24.7764H16.8152ZM22.2563 12.5949C21.855 15.1411 19.8869 17.0161 16.1202 17.0161H11.3049L12.7643 7.75576H17.4936C21.3892 7.76292 22.6552 10.0607 22.2563 12.6021V12.5949Z" fill="var(--fill-0, #003087)"/>
<path id="Vector_2" d="M58.827 10.9586H52.6551C52.4247 10.956 52.2011 11.0367 52.0255 11.186C51.8499 11.3352 51.7342 11.5429 51.6997 11.7707L51.499 13.0509C51.499 13.0509 46.7053 7.81767 38.2236 11.3527C33.3582 13.3781 31.0222 17.5628 30.031 20.6273C30.031 20.6273 26.8733 29.9426 34.0079 35.0707C34.0079 35.0707 40.6241 40.0006 48.0739 34.765L47.9449 35.5819C47.9249 35.7089 47.9326 35.8388 47.9676 35.9626C48.0026 36.0863 48.0639 36.2011 48.1474 36.2989C48.231 36.3967 48.3347 36.4753 48.4514 36.5292C48.5682 36.5831 48.6953 36.6112 48.8239 36.6113H54.9958C55.2262 36.6139 55.4498 36.5332 55.6254 36.3839C55.801 36.2347 55.9167 36.027 55.9512 35.7992L59.706 11.988C59.726 11.861 59.7182 11.7311 59.6833 11.6073C59.6483 11.4835 59.587 11.3688 59.5034 11.271C59.4199 11.1732 59.3162 11.0946 59.1995 11.0407C59.0827 10.9867 58.9556 10.9587 58.827 10.9586ZM49.7506 24.1193C49.509 25.7784 48.6739 27.2936 47.4001 28.3838C46.1264 29.474 44.5004 30.0651 42.8239 30.0476C42.1673 30.0551 41.5136 29.9592 40.8868 29.7634C38.226 28.9083 36.7069 26.3502 37.144 23.5771C37.3856 21.9135 38.2239 20.3944 39.5028 19.3033C40.7816 18.2121 42.4136 17.6232 44.0946 17.6464C44.7521 17.64 45.4066 17.7367 46.0341 17.9331C48.6853 18.7834 50.1949 21.3439 49.7578 24.1193H49.7506Z" fill="var(--fill-0, #003087)"/>
<path id="Vector_3" d="M105.702 24.7762C109.047 24.7759 112.282 23.5795 114.823 21.403C117.363 19.2265 119.042 16.2133 119.555 12.9076C120.635 6.02147 115.256 0.00954494 107.629 0.00954494H95.345C95.1146 0.00694014 94.891 0.0876969 94.7154 0.236931C94.5398 0.386166 94.4241 0.593821 94.3896 0.821641L88.896 35.5914C88.876 35.7184 88.8837 35.8483 88.9187 35.9721C88.9536 36.0959 89.015 36.2106 89.0985 36.3084C89.182 36.4062 89.2857 36.4848 89.4025 36.5387C89.5193 36.5927 89.6463 36.6207 89.7749 36.6208H96.2789C96.5093 36.6234 96.7329 36.5427 96.9085 36.3935C97.084 36.2442 97.1997 36.0366 97.2343 35.8087L98.8465 25.5978C98.8811 25.37 98.9968 25.1623 99.1724 25.0131C99.348 24.8638 99.5715 24.7831 99.802 24.7857L105.702 24.7762ZM111.143 12.5947C110.741 15.1408 108.773 17.0158 105.007 17.0158H100.191L101.653 7.75552H106.382C110.276 7.76269 111.544 10.0605 111.143 12.6018V12.5947Z" fill="var(--fill-0, #0070E0)"/>
<path id="Vector_4" d="M147.713 10.9586H141.546C141.316 10.956 141.092 11.0367 140.917 11.186C140.741 11.3352 140.625 11.5429 140.591 11.7707L140.388 13.0509C140.388 13.0509 135.596 7.81767 127.115 11.3527C122.249 13.3781 119.913 17.5628 118.92 20.6273C118.92 20.6273 115.765 29.9426 122.899 35.0707C122.899 35.0707 129.515 40.0006 136.965 34.765L136.836 35.5819C136.816 35.7089 136.824 35.8388 136.859 35.9626C136.894 36.0863 136.955 36.2011 137.039 36.2989C137.122 36.3967 137.226 36.4753 137.343 36.5292C137.459 36.5831 137.586 36.6112 137.715 36.6113H143.887C144.117 36.6139 144.341 36.5332 144.517 36.3839C144.692 36.2347 144.808 36.027 144.842 35.7992L148.597 11.988C148.617 11.8606 148.609 11.7303 148.574 11.6062C148.539 11.482 148.477 11.3671 148.393 11.2692C148.309 11.1713 148.205 11.0928 148.087 11.0392C147.97 10.9855 147.842 10.958 147.713 10.9586ZM138.637 24.1193C138.398 25.7797 137.564 27.2967 136.29 28.3874C135.015 29.4781 133.388 30.0682 131.71 30.0476C131.053 30.0552 130.398 29.9593 129.771 29.7634C127.108 28.9083 125.589 26.3502 126.026 23.5771C126.267 21.9176 127.102 20.4019 128.375 19.3112C129.649 18.2205 131.276 17.629 132.952 17.6464C133.61 17.6396 134.264 17.7363 134.892 17.9331C137.572 18.7834 139.084 21.3439 138.644 24.1193H138.637Z" fill="var(--fill-0, #0070E0)"/>
<path id="Vector_5" d="M81.4844 11.5485L74.0442 24.1074L70.2679 11.6417C70.209 11.4437 70.0877 11.2701 69.9219 11.147C69.7561 11.0238 69.5548 10.9577 69.3483 10.9585H62.6342C62.5185 10.9565 62.4041 10.9826 62.3007 11.0344C62.1973 11.0863 62.1079 11.1624 62.0403 11.2563C61.9727 11.3502 61.9289 11.459 61.9125 11.5736C61.8961 11.6881 61.9077 11.8049 61.9463 11.9139L68.713 32.9138L62.5936 42.8095C62.5243 42.9185 62.4857 43.0442 62.4819 43.1733C62.4782 43.3024 62.5094 43.4302 62.5723 43.543C62.6352 43.6558 62.7274 43.7496 62.8393 43.8143C62.9511 43.879 63.0783 43.9123 63.2074 43.9106H70.4399C70.6467 43.9111 70.8501 43.8578 71.0301 43.7561C71.2101 43.6543 71.3607 43.5076 71.4669 43.3302L90.3673 12.0644C90.435 11.9552 90.4721 11.8298 90.4747 11.7014C90.4772 11.5729 90.4452 11.4461 90.382 11.3343C90.3187 11.2224 90.2266 11.1296 90.1152 11.0656C90.0037 11.0016 89.8772 10.9688 89.7487 10.9705H82.5187C82.3109 10.9685 82.1062 11.0208 81.9248 11.1222C81.7434 11.2236 81.5916 11.3705 81.4844 11.5485Z" fill="var(--fill-0, #003087)"/>
<path id="Vector_6" d="M154.657 0.812118L149.163 35.5819C149.143 35.7089 149.151 35.8388 149.186 35.9626C149.221 36.0863 149.282 36.2011 149.366 36.2989C149.449 36.3967 149.553 36.4753 149.67 36.5292C149.787 36.5831 149.914 36.6112 150.042 36.6113H156.544C156.774 36.6139 156.998 36.5332 157.173 36.3839C157.349 36.2347 157.465 36.027 157.499 35.7992L162.993 1.02947C163.013 0.90242 163.005 0.772537 162.97 0.64876C162.935 0.524984 162.874 0.410245 162.79 0.31243C162.707 0.214614 162.603 0.136042 162.486 0.0821128C162.37 0.0281839 162.243 0.000174258 162.114 1.46115e-05H155.612C155.382 -0.00259019 155.158 0.0781666 154.983 0.227401C154.807 0.376636 154.691 0.584298 154.657 0.812118Z" fill="var(--fill-0, #0070E0)"/>
</g>
<defs>
<clipPath id="clip0_0_61">
<rect width="163" height="43.8987" fill="white"/>
</clipPath>
</defs>
</svg>
