<svg preserveAspectRatio="none" width="100%" height="100%" overflow="visible" style="display: block;" viewBox="0 0 62.25 16.5038" fill="none" xmlns="http://www.w3.org/2000/svg">
<g id="Frame" clip-path="url(#clip0_0_68)">
<path id="Vector" d="M22.7103 10.002C23.6145 10.0012 24.4887 9.67719 25.175 9.08855C25.8614 8.49991 26.3148 7.68536 26.4535 6.79184C26.7461 4.9293 25.2906 3.30321 23.2284 3.30321H19.9052C19.8429 3.30251 19.7824 3.32435 19.7349 3.36472C19.6874 3.40508 19.6561 3.46125 19.6468 3.52287L18.1654 12.9247C18.16 12.9591 18.1621 12.9942 18.1716 13.0277C18.181 13.0612 18.1976 13.0922 18.2202 13.1187C18.2428 13.1451 18.2708 13.1664 18.3024 13.181C18.334 13.1955 18.3684 13.2031 18.4032 13.2032H20.1617C20.224 13.2039 20.2845 13.182 20.332 13.1417C20.3795 13.1013 20.4108 13.0451 20.4201 12.9835L20.8555 10.2217C20.8649 10.1601 20.8962 10.1039 20.9437 10.0635C20.9911 10.0232 21.0516 10.0013 21.1139 10.002H22.7103ZM24.182 6.70721C24.0735 7.39589 23.5411 7.90303 22.5223 7.90303H21.2199L21.6146 5.39833H22.8938C23.9475 5.40027 24.2899 6.02176 24.182 6.70915V6.70721Z" fill="var(--fill-0, #003087)"/>
<path id="Vector_2" d="M34.0735 6.26467H32.4041C32.3418 6.26397 32.2813 6.28581 32.2338 6.32617C32.1863 6.36654 32.155 6.42271 32.1457 6.48433L32.0914 6.8306C32.0914 6.8306 30.7948 5.41513 28.5007 6.37127C27.1847 6.91911 26.5529 8.05098 26.2848 8.87985C26.2848 8.87985 25.4307 11.3994 27.3605 12.7865C27.3605 12.7865 29.15 14.1199 31.165 12.7038L31.1301 12.9247C31.1247 12.9591 31.1268 12.9942 31.1363 13.0277C31.1457 13.0612 31.1623 13.0922 31.1849 13.1187C31.2075 13.1451 31.2355 13.1664 31.2671 13.181C31.2987 13.1955 31.3331 13.2031 31.3679 13.2032H33.0372C33.0996 13.2039 33.16 13.182 33.2075 13.1417C33.255 13.1013 33.2863 13.0451 33.2957 12.9835L34.3112 6.54311C34.3166 6.50875 34.3145 6.47362 34.3051 6.44014C34.2956 6.40666 34.279 6.37563 34.2564 6.34917C34.2339 6.32272 34.2058 6.30146 34.1742 6.28688C34.1426 6.27229 34.1083 6.26471 34.0735 6.26467ZM31.6185 9.82436C31.5532 10.2731 31.3273 10.6829 30.9828 10.9778C30.6382 11.2727 30.1985 11.4326 29.745 11.4278C29.5674 11.4298 29.3906 11.4039 29.2211 11.351C28.5014 11.1197 28.0905 10.4278 28.2087 9.67771C28.2741 9.22773 28.5008 8.81686 28.8467 8.52172C29.1926 8.22658 29.634 8.0673 30.0887 8.07359C30.2665 8.07184 30.4436 8.098 30.6133 8.15111C31.3304 8.3811 31.7387 9.07366 31.6205 9.82436H31.6185Z" fill="var(--fill-0, #003087)"/>
<path id="Vector_3" d="M46.7521 10.002C47.6569 10.002 48.5319 9.67835 49.2191 9.08966C49.9062 8.50096 50.3602 7.68596 50.4991 6.79184C50.7911 4.9293 49.3362 3.30321 47.2734 3.30321H43.9508C43.8885 3.30251 43.828 3.32435 43.7805 3.36472C43.7331 3.40508 43.7018 3.46125 43.6924 3.52287L42.2065 12.9273C42.2011 12.9617 42.2032 12.9968 42.2127 13.0303C42.2221 13.0638 42.2387 13.0948 42.2613 13.1212C42.2839 13.1477 42.3119 13.169 42.3435 13.1835C42.3751 13.1981 42.4095 13.2057 42.4443 13.2057H44.2034C44.2658 13.2064 44.3262 13.1846 44.3737 13.1442C44.4212 13.1039 44.4525 13.0477 44.4618 12.9861L44.8979 10.2243C44.9073 10.1626 44.9386 10.1065 44.9861 10.0661C45.0336 10.0257 45.094 10.0039 45.1563 10.0046L46.7521 10.002ZM48.2237 6.70721C48.1152 7.39589 47.5829 7.90303 46.5641 7.90303H45.2616L45.657 5.39833H46.9362C47.9892 5.40027 48.3323 6.02176 48.2237 6.70915V6.70721Z" fill="var(--fill-0, #0070E0)"/>
<path id="Vector_4" d="M58.1153 6.26467H56.4473C56.3849 6.26397 56.3245 6.28581 56.277 6.32617C56.2295 6.36654 56.1982 6.42271 56.1889 6.48433L56.1339 6.8306C56.1339 6.8306 54.838 5.41513 52.5439 6.37127C51.2279 6.91911 50.5961 8.05098 50.3273 8.87985C50.3273 8.87985 49.4739 11.3994 51.4036 12.7865C51.4036 12.7865 53.1932 14.1199 55.2082 12.7038L55.1733 12.9247C55.1679 12.9591 55.17 12.9942 55.1794 13.0277C55.1889 13.0612 55.2055 13.0922 55.2281 13.1187C55.2506 13.1451 55.2787 13.1664 55.3103 13.181C55.3419 13.1955 55.3762 13.2031 55.411 13.2032H57.0804C57.1427 13.2039 57.2032 13.182 57.2507 13.1417C57.2982 13.1013 57.3295 13.0451 57.3388 12.9835L58.3544 6.54311C58.3598 6.50864 58.3577 6.4734 58.3482 6.43983C58.3386 6.40626 58.3219 6.37516 58.2992 6.34868C58.2764 6.3222 58.2482 6.30098 58.2165 6.28647C58.1848 6.27197 58.1502 6.26453 58.1153 6.26467ZM55.6604 9.82436C55.5958 10.2735 55.3702 10.6838 55.0255 10.9788C54.6808 11.2738 54.2405 11.4334 53.7869 11.4278C53.6091 11.4299 53.432 11.4039 53.2623 11.351C52.5419 11.1197 52.1311 10.4278 52.2493 9.67771C52.3145 9.22884 52.5403 8.81887 52.8849 8.52387C53.2294 8.22887 53.6693 8.06888 54.1228 8.07359C54.3007 8.07173 54.4777 8.09789 54.6474 8.15111C55.3723 8.3811 55.7812 9.07366 55.6623 9.82436H55.6604Z" fill="var(--fill-0, #0070E0)"/>
<path id="Vector_5" d="M40.2018 6.42424L38.1894 9.82112L37.168 6.44943C37.1521 6.39589 37.1193 6.34895 37.0744 6.31564C37.0296 6.28233 36.9752 6.26444 36.9193 6.26467H35.1033C35.072 6.26413 35.041 6.27117 35.0131 6.2852C34.9851 6.29922 34.9609 6.31981 34.9426 6.3452C34.9244 6.3706 34.9125 6.40004 34.9081 6.43102C34.9036 6.46199 34.9068 6.49358 34.9172 6.52308L36.7474 12.2031L35.0923 14.8796C35.0735 14.9091 35.0631 14.9431 35.0621 14.978C35.0611 15.013 35.0695 15.0475 35.0865 15.078C35.1035 15.1086 35.1285 15.1339 35.1587 15.1514C35.189 15.1689 35.2234 15.1779 35.2583 15.1775H37.2145C37.2705 15.1776 37.3255 15.1632 37.3742 15.1357C37.4229 15.1081 37.4636 15.0685 37.4923 15.0205L42.6045 6.56378C42.6228 6.53424 42.6328 6.50033 42.6335 6.46558C42.6342 6.43083 42.6255 6.39654 42.6084 6.36629C42.5913 6.33604 42.5664 6.31094 42.5363 6.29363C42.5061 6.27632 42.4719 6.26743 42.4371 6.2679H40.4816C40.4254 6.26737 40.37 6.28151 40.321 6.30893C40.2719 6.33635 40.2308 6.37609 40.2018 6.42424Z" fill="var(--fill-0, #003087)"/>
<path id="Vector_6" d="M59.9933 3.52028L58.5074 12.9247C58.502 12.9591 58.5041 12.9942 58.5136 13.0277C58.523 13.0612 58.5396 13.0922 58.5622 13.1187C58.5848 13.1451 58.6129 13.1664 58.6444 13.1809C58.676 13.1955 58.7104 13.2031 58.7452 13.2032H60.5037C60.566 13.2039 60.6265 13.182 60.674 13.1416C60.7215 13.1013 60.7528 13.0451 60.7621 12.9835L62.248 3.57907C62.2534 3.5447 62.2513 3.50957 62.2419 3.47609C62.2324 3.44261 62.2158 3.41158 62.1932 3.38512C62.1707 3.35867 62.1426 3.33741 62.111 3.32283C62.0794 3.30824 62.0451 3.30067 62.0103 3.30062H60.2518C60.1894 3.29992 60.129 3.32176 60.0815 3.36212C60.034 3.40249 60.0027 3.45866 59.9933 3.52028Z" fill="var(--fill-0, #0070E0)"/>
<path id="Vector_7" d="M13.1799 7.59746C12.8026 9.74813 11.048 11.3742 8.74547 11.3742H7.28348C6.98566 11.3742 6.68525 11.6501 6.63744 11.9557L5.99721 16.0186C5.96039 16.2499 5.85185 16.3268 5.61734 16.3268H3.26639C3.02865 16.3268 2.97244 16.2473 3.00798 16.0128L3.27802 13.2032L0.455464 13.0572C0.218367 13.0572 0.132443 12.9279 0.166037 12.6909L2.09189 0.48066C2.12871 0.249377 2.27278 0.149887 2.50665 0.149887H7.39008C9.74103 0.149887 11.2282 1.73269 11.4104 3.78452C12.8091 4.72968 13.4629 5.98687 13.1799 7.59746Z" fill="var(--fill-0, #001C64)"/>
<path id="Vector_8" d="M3.99321 8.65307L3.27804 13.2031L2.82581 16.0574C2.81736 16.1124 2.82088 16.1687 2.83613 16.2222C2.85138 16.2758 2.87799 16.3255 2.91417 16.3679C2.95034 16.4102 2.99522 16.4443 3.04575 16.4677C3.09628 16.4912 3.15127 16.5035 3.20698 16.5038H5.69037C5.80366 16.5036 5.91318 16.4631 5.99927 16.3894C6.08536 16.3158 6.14236 16.2138 6.16003 16.1019L6.81383 11.9543C6.83151 11.8424 6.88851 11.7405 6.97459 11.6669C7.06068 11.5932 7.17021 11.5527 7.2835 11.5525H8.7455C9.85932 11.5511 10.936 11.1518 11.7814 10.4266C12.6268 9.70141 13.1853 8.69807 13.3563 7.59744C13.6095 5.98234 12.7968 4.51194 11.4059 3.78579C11.4027 3.95781 11.3878 4.12941 11.3613 4.2994C11.1897 5.3995 10.6309 6.40216 9.78555 7.12679C8.94022 7.85143 7.86393 8.25041 6.75052 8.25188H4.46289C4.34965 8.25187 4.24013 8.29228 4.15403 8.36583C4.06793 8.43937 4.0109 8.54123 3.99321 8.65307Z" fill="var(--fill-0, #0070E0)"/>
<path id="Vector_9" d="M3.27762 13.2032H0.385936C0.330111 13.203 0.274982 13.1907 0.224322 13.1673C0.173661 13.1438 0.128665 13.1097 0.0924102 13.0673C0.056155 13.0248 0.0294964 12.975 0.0142594 12.9213C-0.000977675 12.8676 -0.00443472 12.8113 0.00412553 12.7561L1.95259 0.401838C1.97014 0.289876 2.02711 0.187867 2.11322 0.114191C2.19933 0.0405151 2.30893 1.81079e-05 2.42226 0H7.38709C9.73804 0 11.4475 1.71072 11.4074 3.78322C10.7817 3.46044 10.0868 3.2948 9.38272 3.30063H5.24353C5.13012 3.30062 5.02044 3.3411 4.93422 3.41476C4.848 3.48843 4.7909 3.59045 4.77321 3.70246L3.99279 8.65308L3.27762 13.2032Z" fill="var(--fill-0, #003087)"/>
</g>
<defs>
<clipPath id="clip0_0_68">
<rect width="62.25" height="16.5038" fill="white"/>
</clipPath>
</defs>
</svg>
